<svg width="131" height="105" viewBox="0 0 131 105" fill="none" xmlns="http://www.w3.org/2000/svg">
<path d="M26.8878 79.2789C26.8878 85.8058 25.3255 91.5929 22.9296 95.6635C20.4998 99.7915 17.5045 101.744 14.6939 101.744C11.8834 101.744 8.88798 99.7915 6.45825 95.6635C4.06238 91.5929 2.5 85.8058 2.5 79.2789C2.5 72.752 4.06238 66.9649 6.45825 62.8944C8.88798 58.7664 11.8834 56.8143 14.6939 56.8143C17.5045 56.8143 20.4998 58.7664 22.9296 62.8944C25.3255 66.9649 26.8878 72.752 26.8878 79.2789Z" stroke="white" stroke-width="5"/>
<mask id="path-2-inside-1_32_17" fill="white">
<path d="M14.943 54.3143H106.035C119.823 54.3143 131 65.4914 131 79.2789V79.2789C131 93.0665 119.823 104.244 106.035 104.244H14.943V54.3143Z"/>
</mask>
<path d="M14.943 49.3143H106.035C122.584 49.3143 136 62.7299 136 79.2789L126 79.2789C126 68.2528 117.062 59.3143 106.035 59.3143H14.943V49.3143ZM136 79.2789C136 95.8279 122.584 109.244 106.035 109.244H14.943V99.2435H106.035C117.062 99.2435 126 90.3051 126 79.2789L136 79.2789ZM14.943 104.244V54.3143V104.244ZM106.035 49.3143C122.584 49.3143 136 62.7299 136 79.2789C136 95.8279 122.584 109.244 106.035 109.244L106.035 99.2435C117.062 99.2435 126 90.3051 126 79.2789V79.2789C126 68.2528 117.062 59.3143 106.035 59.3143L106.035 49.3143Z" fill="white" mask="url(#path-2-inside-1_32_17)"/>
<rect x="24.9069" y="61.9471" width="18.4259" height="1.37758" rx="0.68879" fill="white" stroke="white"/>
<rect x="105.101" y="94.6388" width="18.4259" height="1.37758" rx="0.68879" fill="white" stroke="white"/>
<rect x="37.3594" y="69.6742" width="14.4411" height="1.37758" rx="0.68879" fill="white" stroke="white"/>
<rect x="50.808" y="79.7789" width="19.4221" height="1.37758" rx="0.68879" fill="white" stroke="white"/>
<rect x="78.2034" y="79.7789" width="9.46008" height="1.37758" rx="0.68879" fill="white" stroke="white"/>
<rect x="27.3973" y="79.7789" width="13.4449" height="1.37758" rx="0.68879" fill="white" stroke="white"/>
<rect x="41.8422" y="89.8837" width="18.4259" height="1.37758" rx="0.68879" fill="white" stroke="white"/>
<rect x="58.7776" y="64.3247" width="9.46008" height="1.37758" rx="0.68879" fill="white" stroke="white"/>
<rect x="82.1882" y="70.863" width="18.4259" height="1.37758" rx="0.68879" fill="white" stroke="white"/>
<rect x="73.7206" y="92.2612" width="15.4373" height="1.37758" rx="0.68879" fill="white" stroke="white"/>
<rect x="96.135" y="79.7789" width="21.9125" height="1.37758" rx="0.68879" fill="white" stroke="white"/>
<rect x="109.584" y="61.9471" width="13.943" height="1.37758" rx="0.68879" fill="white" stroke="white"/>
<rect x="80.1958" y="61.9471" width="18.4259" height="1.37758" rx="0.68879" fill="white" stroke="white"/>
<rect x="24.9069" y="94.6388" width="11.4525" height="1.37758" rx="0.68879" fill="white" stroke="white"/>
<path d="M59.3217 26.2886L59.914 26.435L60.4461 26.2569L65.3618 24.6118L105.425 40.9814L102.834 55.9726L62.6264 39.5438L58.69 35.0427L58.3465 34.6501L57.9195 34.4029L52.4706 31.2494L52.1467 31.0619L51.805 30.9774L46.0918 29.5645L35.9576 26.7257L37.8231 16.0419L47.4758 21.4512L52.9079 24.5951L53.2318 24.7826L53.5735 24.8671L59.3217 26.2886Z" stroke="white" stroke-width="5"/>
<path d="M27.7665 11.3307C30.0466 12.3964 32.5405 13.5621 35.1131 14.5799C35.1425 14.6383 35.1756 14.7101 35.2108 14.797C35.5052 15.523 35.9776 17.3804 35.5477 21.1776C34.8763 24.2323 33.9122 25.3074 33.4133 25.6786C33.2671 25.7874 33.1447 25.8483 33.0561 25.8825C31.2996 25.2179 29.5227 24.5938 27.8399 24.0028C26.7454 23.6183 25.6907 23.2479 24.7073 22.8893C21.9661 21.89 19.6484 20.94 17.8051 19.8546C15.9603 18.7682 14.8593 17.7006 14.254 16.6031C13.6853 15.5722 13.3193 14.0857 13.7015 11.7177C14.1081 9.19799 14.8994 8.25478 15.6323 7.86656C16.4367 7.44051 17.687 7.40121 19.695 7.9737C21.6899 8.54247 24.0459 9.59681 26.8193 10.8885C27.1306 11.0335 27.4464 11.1811 27.7665 11.3307ZM35.7436 14.8257L36.1414 12.3587C36.1432 12.3601 36.1462 12.3622 36.1503 12.365C36.2494 12.4343 37.0034 12.9612 37.5409 14.6436C37.3188 14.7897 37.0988 14.903 36.9635 14.9418C36.5374 15.0302 36.1674 14.9473 36.1073 14.9339C36.1048 14.9333 36.1029 14.9329 36.1015 14.9326C35.9132 14.892 35.7629 14.8332 35.7451 14.8263L35.7436 14.8257Z" stroke="white" stroke-width="5"/>
</svg>
